<mxfile host="app.diagrams.net" modified="2023-05-29T15:05:02.495Z" agent="Mozilla/5.0 (Macintosh; Intel Mac OS X 10_15_7) AppleWebKit/537.36 (KHTML, like Gecko) Chrome/113.0.0.0 Safari/537.36" etag="jPLFY8mAoklC4B2Y3tjj" version="21.3.5" type="device">
  <diagram id="C5RBs43oDa-KdzZeNtuy" name="Page-1">
    <mxGraphModel dx="1363" dy="931" grid="1" gridSize="10" guides="1" tooltips="1" connect="1" arrows="1" fold="1" page="1" pageScale="1" pageWidth="827" pageHeight="1169" math="0" shadow="0">
      <root>
        <mxCell id="WIyWlLk6GJQsqaUBKTNV-0" />
        <mxCell id="WIyWlLk6GJQsqaUBKTNV-1" parent="WIyWlLk6GJQsqaUBKTNV-0" />
        <mxCell id="WIyWlLk6GJQsqaUBKTNV-2" value="" style="rounded=0;html=1;jettySize=auto;orthogonalLoop=1;fontSize=11;endArrow=block;endFill=0;endSize=8;strokeWidth=1;shadow=0;labelBackgroundColor=none;edgeStyle=orthogonalEdgeStyle;entryX=0;entryY=0.5;entryDx=0;entryDy=0;" parent="WIyWlLk6GJQsqaUBKTNV-1" source="WIyWlLk6GJQsqaUBKTNV-3" target="O6eRiqCZWH2yZjMmsFh3-2" edge="1">
          <mxGeometry relative="1" as="geometry">
            <mxPoint x="100" y="160" as="targetPoint" />
            <Array as="points">
              <mxPoint x="100" y="155" />
            </Array>
          </mxGeometry>
        </mxCell>
        <mxCell id="O6eRiqCZWH2yZjMmsFh3-5" style="edgeStyle=orthogonalEdgeStyle;rounded=0;orthogonalLoop=1;jettySize=auto;html=1;entryX=0;entryY=0.5;entryDx=0;entryDy=0;" edge="1" parent="WIyWlLk6GJQsqaUBKTNV-1" source="WIyWlLk6GJQsqaUBKTNV-3" target="O6eRiqCZWH2yZjMmsFh3-3">
          <mxGeometry relative="1" as="geometry" />
        </mxCell>
        <mxCell id="O6eRiqCZWH2yZjMmsFh3-38" style="edgeStyle=orthogonalEdgeStyle;rounded=0;orthogonalLoop=1;jettySize=auto;html=1;entryX=0;entryY=0.5;entryDx=0;entryDy=0;" edge="1" parent="WIyWlLk6GJQsqaUBKTNV-1" source="WIyWlLk6GJQsqaUBKTNV-3" target="O6eRiqCZWH2yZjMmsFh3-37">
          <mxGeometry relative="1" as="geometry" />
        </mxCell>
        <mxCell id="WIyWlLk6GJQsqaUBKTNV-3" value="Initial models ideas:" style="rounded=1;whiteSpace=wrap;html=1;fontSize=12;glass=0;strokeWidth=1;shadow=0;fillColor=#647687;fontColor=#ffffff;strokeColor=#314354;" parent="WIyWlLk6GJQsqaUBKTNV-1" vertex="1">
          <mxGeometry x="40" y="40" width="120" height="40" as="geometry" />
        </mxCell>
        <mxCell id="O6eRiqCZWH2yZjMmsFh3-7" style="edgeStyle=orthogonalEdgeStyle;rounded=0;orthogonalLoop=1;jettySize=auto;html=1;exitX=1;exitY=0.5;exitDx=0;exitDy=0;" edge="1" parent="WIyWlLk6GJQsqaUBKTNV-1" source="O6eRiqCZWH2yZjMmsFh3-2" target="O6eRiqCZWH2yZjMmsFh3-6">
          <mxGeometry relative="1" as="geometry" />
        </mxCell>
        <mxCell id="O6eRiqCZWH2yZjMmsFh3-2" value="Feature extraction?" style="rhombus;whiteSpace=wrap;html=1;fillColor=#f0a30a;fontColor=#000000;strokeColor=#BD7000;" vertex="1" parent="WIyWlLk6GJQsqaUBKTNV-1">
          <mxGeometry x="140" y="110" width="100" height="90" as="geometry" />
        </mxCell>
        <mxCell id="O6eRiqCZWH2yZjMmsFh3-30" style="edgeStyle=orthogonalEdgeStyle;rounded=0;orthogonalLoop=1;jettySize=auto;html=1;exitX=1;exitY=0.5;exitDx=0;exitDy=0;" edge="1" parent="WIyWlLk6GJQsqaUBKTNV-1" source="O6eRiqCZWH2yZjMmsFh3-3" target="O6eRiqCZWH2yZjMmsFh3-29">
          <mxGeometry relative="1" as="geometry" />
        </mxCell>
        <mxCell id="O6eRiqCZWH2yZjMmsFh3-36" style="edgeStyle=orthogonalEdgeStyle;rounded=0;orthogonalLoop=1;jettySize=auto;html=1;entryX=0;entryY=0.5;entryDx=0;entryDy=0;" edge="1" parent="WIyWlLk6GJQsqaUBKTNV-1" source="O6eRiqCZWH2yZjMmsFh3-3" target="O6eRiqCZWH2yZjMmsFh3-33">
          <mxGeometry relative="1" as="geometry" />
        </mxCell>
        <mxCell id="O6eRiqCZWH2yZjMmsFh3-3" value="Caption generation?" style="rhombus;whiteSpace=wrap;html=1;fillColor=#f0a30a;fontColor=#000000;strokeColor=#BD7000;" vertex="1" parent="WIyWlLk6GJQsqaUBKTNV-1">
          <mxGeometry x="140" y="220" width="100" height="90" as="geometry" />
        </mxCell>
        <mxCell id="O6eRiqCZWH2yZjMmsFh3-10" style="edgeStyle=orthogonalEdgeStyle;rounded=0;orthogonalLoop=1;jettySize=auto;html=1;exitX=1;exitY=0.5;exitDx=0;exitDy=0;entryX=0;entryY=0.5;entryDx=0;entryDy=0;" edge="1" parent="WIyWlLk6GJQsqaUBKTNV-1" source="O6eRiqCZWH2yZjMmsFh3-6" target="O6eRiqCZWH2yZjMmsFh3-9">
          <mxGeometry relative="1" as="geometry" />
        </mxCell>
        <mxCell id="O6eRiqCZWH2yZjMmsFh3-12" style="edgeStyle=orthogonalEdgeStyle;rounded=0;orthogonalLoop=1;jettySize=auto;html=1;exitX=0.5;exitY=0;exitDx=0;exitDy=0;entryX=0.5;entryY=1;entryDx=0;entryDy=0;" edge="1" parent="WIyWlLk6GJQsqaUBKTNV-1" source="O6eRiqCZWH2yZjMmsFh3-6" target="O6eRiqCZWH2yZjMmsFh3-11">
          <mxGeometry relative="1" as="geometry" />
        </mxCell>
        <mxCell id="O6eRiqCZWH2yZjMmsFh3-6" value="Resnet" style="rounded=1;whiteSpace=wrap;html=1;fillColor=#647687;fontColor=#ffffff;strokeColor=#314354;" vertex="1" parent="WIyWlLk6GJQsqaUBKTNV-1">
          <mxGeometry x="294" y="125" width="120" height="60" as="geometry" />
        </mxCell>
        <mxCell id="O6eRiqCZWH2yZjMmsFh3-18" style="edgeStyle=orthogonalEdgeStyle;rounded=0;orthogonalLoop=1;jettySize=auto;html=1;exitX=1;exitY=0.5;exitDx=0;exitDy=0;entryX=0;entryY=0.5;entryDx=0;entryDy=0;" edge="1" parent="WIyWlLk6GJQsqaUBKTNV-1" source="O6eRiqCZWH2yZjMmsFh3-9" target="O6eRiqCZWH2yZjMmsFh3-16">
          <mxGeometry relative="1" as="geometry" />
        </mxCell>
        <mxCell id="O6eRiqCZWH2yZjMmsFh3-20" style="edgeStyle=orthogonalEdgeStyle;rounded=0;orthogonalLoop=1;jettySize=auto;html=1;entryX=-0.002;entryY=0.39;entryDx=0;entryDy=0;entryPerimeter=0;" edge="1" parent="WIyWlLk6GJQsqaUBKTNV-1" source="O6eRiqCZWH2yZjMmsFh3-9" target="O6eRiqCZWH2yZjMmsFh3-19">
          <mxGeometry relative="1" as="geometry" />
        </mxCell>
        <mxCell id="O6eRiqCZWH2yZjMmsFh3-9" value="How to?" style="rhombus;whiteSpace=wrap;html=1;fillColor=#f0a30a;fontColor=#000000;strokeColor=#BD7000;" vertex="1" parent="WIyWlLk6GJQsqaUBKTNV-1">
          <mxGeometry x="440" y="110" width="100" height="90" as="geometry" />
        </mxCell>
        <mxCell id="O6eRiqCZWH2yZjMmsFh3-15" style="edgeStyle=orthogonalEdgeStyle;rounded=0;orthogonalLoop=1;jettySize=auto;html=1;exitX=1;exitY=0.5;exitDx=0;exitDy=0;entryX=0;entryY=0.5;entryDx=0;entryDy=0;" edge="1" parent="WIyWlLk6GJQsqaUBKTNV-1" source="O6eRiqCZWH2yZjMmsFh3-11" target="O6eRiqCZWH2yZjMmsFh3-13">
          <mxGeometry relative="1" as="geometry" />
        </mxCell>
        <mxCell id="O6eRiqCZWH2yZjMmsFh3-27" style="edgeStyle=orthogonalEdgeStyle;rounded=0;orthogonalLoop=1;jettySize=auto;html=1;entryX=0;entryY=0.5;entryDx=0;entryDy=0;" edge="1" parent="WIyWlLk6GJQsqaUBKTNV-1" source="O6eRiqCZWH2yZjMmsFh3-11" target="O6eRiqCZWH2yZjMmsFh3-26">
          <mxGeometry relative="1" as="geometry" />
        </mxCell>
        <mxCell id="O6eRiqCZWH2yZjMmsFh3-11" value="Size?" style="rhombus;whiteSpace=wrap;html=1;fillColor=#f0a30a;fontColor=#000000;strokeColor=#BD7000;" vertex="1" parent="WIyWlLk6GJQsqaUBKTNV-1">
          <mxGeometry x="304" y="10" width="100" height="90" as="geometry" />
        </mxCell>
        <mxCell id="O6eRiqCZWH2yZjMmsFh3-13" value="Resnet18" style="ellipse;whiteSpace=wrap;html=1;fillColor=#fa6800;fontColor=#000000;strokeColor=#C73500;" vertex="1" parent="WIyWlLk6GJQsqaUBKTNV-1">
          <mxGeometry x="440" y="10" width="80" height="35" as="geometry" />
        </mxCell>
        <mxCell id="O6eRiqCZWH2yZjMmsFh3-16" value="As it comes out" style="ellipse;whiteSpace=wrap;html=1;fillColor=#a20025;fontColor=#ffffff;strokeColor=#6F0000;" vertex="1" parent="WIyWlLk6GJQsqaUBKTNV-1">
          <mxGeometry x="580" y="70" width="110" height="45" as="geometry" />
        </mxCell>
        <mxCell id="O6eRiqCZWH2yZjMmsFh3-23" style="edgeStyle=orthogonalEdgeStyle;rounded=0;orthogonalLoop=1;jettySize=auto;html=1;exitX=1;exitY=0.5;exitDx=0;exitDy=0;entryX=0;entryY=0.5;entryDx=0;entryDy=0;" edge="1" parent="WIyWlLk6GJQsqaUBKTNV-1" source="O6eRiqCZWH2yZjMmsFh3-19" target="O6eRiqCZWH2yZjMmsFh3-21">
          <mxGeometry relative="1" as="geometry">
            <Array as="points">
              <mxPoint x="690" y="160" />
              <mxPoint x="690" y="130" />
            </Array>
          </mxGeometry>
        </mxCell>
        <mxCell id="O6eRiqCZWH2yZjMmsFh3-25" style="edgeStyle=orthogonalEdgeStyle;rounded=0;orthogonalLoop=1;jettySize=auto;html=1;exitX=1;exitY=0.5;exitDx=0;exitDy=0;entryX=0;entryY=0.5;entryDx=0;entryDy=0;" edge="1" parent="WIyWlLk6GJQsqaUBKTNV-1" source="O6eRiqCZWH2yZjMmsFh3-19" target="O6eRiqCZWH2yZjMmsFh3-22">
          <mxGeometry relative="1" as="geometry">
            <Array as="points">
              <mxPoint x="690" y="160" />
              <mxPoint x="690" y="190" />
            </Array>
          </mxGeometry>
        </mxCell>
        <mxCell id="O6eRiqCZWH2yZjMmsFh3-19" value="Remove last layers" style="rounded=1;whiteSpace=wrap;html=1;fillColor=#647687;fontColor=#ffffff;strokeColor=#314354;" vertex="1" parent="WIyWlLk6GJQsqaUBKTNV-1">
          <mxGeometry x="590" y="135" width="90" height="50" as="geometry" />
        </mxCell>
        <mxCell id="O6eRiqCZWH2yZjMmsFh3-21" value="Av max pooling" style="ellipse;whiteSpace=wrap;html=1;fillColor=#008a00;fontColor=#ffffff;strokeColor=#005700;" vertex="1" parent="WIyWlLk6GJQsqaUBKTNV-1">
          <mxGeometry x="710" y="110" width="100" height="40" as="geometry" />
        </mxCell>
        <mxCell id="O6eRiqCZWH2yZjMmsFh3-22" value="Flatten" style="ellipse;whiteSpace=wrap;html=1;fillColor=#fa6800;fontColor=#000000;strokeColor=#C73500;" vertex="1" parent="WIyWlLk6GJQsqaUBKTNV-1">
          <mxGeometry x="710" y="170" width="100" height="40" as="geometry" />
        </mxCell>
        <mxCell id="O6eRiqCZWH2yZjMmsFh3-26" value="DensNet201" style="ellipse;whiteSpace=wrap;html=1;fillColor=#008a00;fontColor=#ffffff;strokeColor=#005700;" vertex="1" parent="WIyWlLk6GJQsqaUBKTNV-1">
          <mxGeometry x="440" y="60" width="80" height="35" as="geometry" />
        </mxCell>
        <mxCell id="O6eRiqCZWH2yZjMmsFh3-32" style="edgeStyle=orthogonalEdgeStyle;rounded=0;orthogonalLoop=1;jettySize=auto;html=1;exitX=1;exitY=0.5;exitDx=0;exitDy=0;" edge="1" parent="WIyWlLk6GJQsqaUBKTNV-1" source="O6eRiqCZWH2yZjMmsFh3-29" target="O6eRiqCZWH2yZjMmsFh3-31">
          <mxGeometry relative="1" as="geometry" />
        </mxCell>
        <mxCell id="O6eRiqCZWH2yZjMmsFh3-29" value="GPT2" style="rounded=1;whiteSpace=wrap;html=1;fillColor=#647687;fontColor=#ffffff;strokeColor=#314354;" vertex="1" parent="WIyWlLk6GJQsqaUBKTNV-1">
          <mxGeometry x="294" y="242.5" width="116" height="45" as="geometry" />
        </mxCell>
        <mxCell id="O6eRiqCZWH2yZjMmsFh3-50" style="edgeStyle=orthogonalEdgeStyle;rounded=0;orthogonalLoop=1;jettySize=auto;html=1;exitX=1;exitY=0.5;exitDx=0;exitDy=0;" edge="1" parent="WIyWlLk6GJQsqaUBKTNV-1" source="O6eRiqCZWH2yZjMmsFh3-31" target="O6eRiqCZWH2yZjMmsFh3-49">
          <mxGeometry relative="1" as="geometry" />
        </mxCell>
        <mxCell id="O6eRiqCZWH2yZjMmsFh3-31" value="How to &lt;br&gt;feed the im features?" style="rhombus;whiteSpace=wrap;html=1;fillColor=#f0a30a;fontColor=#000000;strokeColor=#BD7000;" vertex="1" parent="WIyWlLk6GJQsqaUBKTNV-1">
          <mxGeometry x="440" y="220" width="100" height="90" as="geometry" />
        </mxCell>
        <mxCell id="O6eRiqCZWH2yZjMmsFh3-44" style="edgeStyle=orthogonalEdgeStyle;rounded=0;orthogonalLoop=1;jettySize=auto;html=1;entryX=0;entryY=0.5;entryDx=0;entryDy=0;" edge="1" parent="WIyWlLk6GJQsqaUBKTNV-1" source="O6eRiqCZWH2yZjMmsFh3-33" target="O6eRiqCZWH2yZjMmsFh3-43">
          <mxGeometry relative="1" as="geometry" />
        </mxCell>
        <mxCell id="O6eRiqCZWH2yZjMmsFh3-72" style="edgeStyle=orthogonalEdgeStyle;rounded=0;orthogonalLoop=1;jettySize=auto;html=1;entryX=0.5;entryY=0;entryDx=0;entryDy=0;" edge="1" parent="WIyWlLk6GJQsqaUBKTNV-1" source="O6eRiqCZWH2yZjMmsFh3-33" target="O6eRiqCZWH2yZjMmsFh3-71">
          <mxGeometry relative="1" as="geometry" />
        </mxCell>
        <mxCell id="O6eRiqCZWH2yZjMmsFh3-33" value="LSTM" style="rounded=1;whiteSpace=wrap;html=1;fillColor=#647687;fontColor=#ffffff;strokeColor=#314354;" vertex="1" parent="WIyWlLk6GJQsqaUBKTNV-1">
          <mxGeometry x="298" y="352.5" width="116" height="45" as="geometry" />
        </mxCell>
        <mxCell id="O6eRiqCZWH2yZjMmsFh3-41" style="edgeStyle=orthogonalEdgeStyle;rounded=0;orthogonalLoop=1;jettySize=auto;html=1;entryX=0.5;entryY=0;entryDx=0;entryDy=0;" edge="1" parent="WIyWlLk6GJQsqaUBKTNV-1" source="O6eRiqCZWH2yZjMmsFh3-37" target="O6eRiqCZWH2yZjMmsFh3-39">
          <mxGeometry relative="1" as="geometry">
            <Array as="points">
              <mxPoint x="190" y="440" />
              <mxPoint x="128" y="440" />
            </Array>
          </mxGeometry>
        </mxCell>
        <mxCell id="O6eRiqCZWH2yZjMmsFh3-42" style="edgeStyle=orthogonalEdgeStyle;rounded=0;orthogonalLoop=1;jettySize=auto;html=1;entryX=0.5;entryY=0;entryDx=0;entryDy=0;" edge="1" parent="WIyWlLk6GJQsqaUBKTNV-1" source="O6eRiqCZWH2yZjMmsFh3-37" target="O6eRiqCZWH2yZjMmsFh3-40">
          <mxGeometry relative="1" as="geometry">
            <Array as="points">
              <mxPoint x="190" y="440" />
              <mxPoint x="278" y="440" />
            </Array>
          </mxGeometry>
        </mxCell>
        <mxCell id="O6eRiqCZWH2yZjMmsFh3-37" value="Loss? &lt;br&gt;How good?" style="rhombus;whiteSpace=wrap;html=1;fillColor=#f0a30a;fontColor=#000000;strokeColor=#BD7000;" vertex="1" parent="WIyWlLk6GJQsqaUBKTNV-1">
          <mxGeometry x="140" y="337.5" width="100" height="90" as="geometry" />
        </mxCell>
        <mxCell id="O6eRiqCZWH2yZjMmsFh3-80" style="edgeStyle=orthogonalEdgeStyle;rounded=0;orthogonalLoop=1;jettySize=auto;html=1;entryX=0.5;entryY=0;entryDx=0;entryDy=0;" edge="1" parent="WIyWlLk6GJQsqaUBKTNV-1" source="O6eRiqCZWH2yZjMmsFh3-39" target="O6eRiqCZWH2yZjMmsFh3-78">
          <mxGeometry relative="1" as="geometry">
            <Array as="points">
              <mxPoint x="128" y="520" />
              <mxPoint x="60" y="520" />
            </Array>
          </mxGeometry>
        </mxCell>
        <mxCell id="O6eRiqCZWH2yZjMmsFh3-81" style="edgeStyle=orthogonalEdgeStyle;rounded=0;orthogonalLoop=1;jettySize=auto;html=1;entryX=0.5;entryY=0;entryDx=0;entryDy=0;" edge="1" parent="WIyWlLk6GJQsqaUBKTNV-1" source="O6eRiqCZWH2yZjMmsFh3-39" target="O6eRiqCZWH2yZjMmsFh3-79">
          <mxGeometry relative="1" as="geometry">
            <Array as="points">
              <mxPoint x="128" y="520" />
              <mxPoint x="180" y="520" />
            </Array>
          </mxGeometry>
        </mxCell>
        <mxCell id="O6eRiqCZWH2yZjMmsFh3-39" value="CrossEntropy" style="rounded=1;whiteSpace=wrap;html=1;fillColor=#647687;fontColor=#ffffff;strokeColor=#314354;" vertex="1" parent="WIyWlLk6GJQsqaUBKTNV-1">
          <mxGeometry x="70" y="460" width="116" height="45" as="geometry" />
        </mxCell>
        <mxCell id="O6eRiqCZWH2yZjMmsFh3-83" style="edgeStyle=orthogonalEdgeStyle;rounded=0;orthogonalLoop=1;jettySize=auto;html=1;entryX=0.5;entryY=0;entryDx=0;entryDy=0;" edge="1" parent="WIyWlLk6GJQsqaUBKTNV-1" source="O6eRiqCZWH2yZjMmsFh3-40" target="O6eRiqCZWH2yZjMmsFh3-82">
          <mxGeometry relative="1" as="geometry" />
        </mxCell>
        <mxCell id="O6eRiqCZWH2yZjMmsFh3-40" value="Sentence &lt;br&gt;similarity" style="rounded=1;whiteSpace=wrap;html=1;fillColor=#647687;fontColor=#ffffff;strokeColor=#314354;" vertex="1" parent="WIyWlLk6GJQsqaUBKTNV-1">
          <mxGeometry x="230" y="460" width="116" height="45" as="geometry" />
        </mxCell>
        <mxCell id="O6eRiqCZWH2yZjMmsFh3-58" style="edgeStyle=orthogonalEdgeStyle;rounded=0;orthogonalLoop=1;jettySize=auto;html=1;entryX=0;entryY=0.5;entryDx=0;entryDy=0;" edge="1" parent="WIyWlLk6GJQsqaUBKTNV-1" source="O6eRiqCZWH2yZjMmsFh3-43" target="O6eRiqCZWH2yZjMmsFh3-53">
          <mxGeometry relative="1" as="geometry" />
        </mxCell>
        <mxCell id="O6eRiqCZWH2yZjMmsFh3-68" style="edgeStyle=orthogonalEdgeStyle;rounded=0;orthogonalLoop=1;jettySize=auto;html=1;entryX=0;entryY=0.5;entryDx=0;entryDy=0;" edge="1" parent="WIyWlLk6GJQsqaUBKTNV-1" source="O6eRiqCZWH2yZjMmsFh3-43" target="O6eRiqCZWH2yZjMmsFh3-55">
          <mxGeometry relative="1" as="geometry">
            <Array as="points">
              <mxPoint x="550" y="375" />
              <mxPoint x="550" y="554" />
            </Array>
          </mxGeometry>
        </mxCell>
        <mxCell id="O6eRiqCZWH2yZjMmsFh3-43" value="How to &lt;br&gt;feed the im features?" style="rhombus;whiteSpace=wrap;html=1;fillColor=#f0a30a;fontColor=#000000;strokeColor=#BD7000;" vertex="1" parent="WIyWlLk6GJQsqaUBKTNV-1">
          <mxGeometry x="440" y="330" width="100" height="90" as="geometry" />
        </mxCell>
        <mxCell id="O6eRiqCZWH2yZjMmsFh3-49" value="Bypass embedding layer" style="ellipse;whiteSpace=wrap;html=1;fillColor=#a20025;fontColor=#ffffff;strokeColor=#6F0000;" vertex="1" parent="WIyWlLk6GJQsqaUBKTNV-1">
          <mxGeometry x="580" y="233.75" width="115" height="62.5" as="geometry" />
        </mxCell>
        <mxCell id="O6eRiqCZWH2yZjMmsFh3-51" value="Features as intial hidden state." style="ellipse;whiteSpace=wrap;html=1;fillColor=#a20025;fontColor=#ffffff;strokeColor=#6F0000;" vertex="1" parent="WIyWlLk6GJQsqaUBKTNV-1">
          <mxGeometry x="690" y="290.5" width="122" height="47" as="geometry" />
        </mxCell>
        <mxCell id="O6eRiqCZWH2yZjMmsFh3-52" value="Concat to each previous hidden&amp;nbsp;" style="ellipse;whiteSpace=wrap;html=1;" vertex="1" parent="WIyWlLk6GJQsqaUBKTNV-1">
          <mxGeometry x="690" y="350.5" width="122" height="47" as="geometry" />
        </mxCell>
        <mxCell id="O6eRiqCZWH2yZjMmsFh3-59" style="edgeStyle=orthogonalEdgeStyle;rounded=0;orthogonalLoop=1;jettySize=auto;html=1;entryX=0;entryY=0.5;entryDx=0;entryDy=0;" edge="1" parent="WIyWlLk6GJQsqaUBKTNV-1" source="O6eRiqCZWH2yZjMmsFh3-53" target="O6eRiqCZWH2yZjMmsFh3-51">
          <mxGeometry relative="1" as="geometry">
            <Array as="points">
              <mxPoint x="670" y="375" />
              <mxPoint x="670" y="314" />
            </Array>
          </mxGeometry>
        </mxCell>
        <mxCell id="O6eRiqCZWH2yZjMmsFh3-60" style="edgeStyle=orthogonalEdgeStyle;rounded=0;orthogonalLoop=1;jettySize=auto;html=1;entryX=0;entryY=0.5;entryDx=0;entryDy=0;" edge="1" parent="WIyWlLk6GJQsqaUBKTNV-1" source="O6eRiqCZWH2yZjMmsFh3-53" target="O6eRiqCZWH2yZjMmsFh3-52">
          <mxGeometry relative="1" as="geometry" />
        </mxCell>
        <mxCell id="O6eRiqCZWH2yZjMmsFh3-61" style="edgeStyle=orthogonalEdgeStyle;rounded=0;orthogonalLoop=1;jettySize=auto;html=1;entryX=0;entryY=0.5;entryDx=0;entryDy=0;" edge="1" parent="WIyWlLk6GJQsqaUBKTNV-1" source="O6eRiqCZWH2yZjMmsFh3-53" target="O6eRiqCZWH2yZjMmsFh3-56">
          <mxGeometry relative="1" as="geometry">
            <Array as="points">
              <mxPoint x="670" y="375" />
              <mxPoint x="670" y="436" />
            </Array>
          </mxGeometry>
        </mxCell>
        <mxCell id="O6eRiqCZWH2yZjMmsFh3-53" value="Hidden states" style="rounded=1;whiteSpace=wrap;html=1;fillColor=#647687;fontColor=#ffffff;strokeColor=#314354;" vertex="1" parent="WIyWlLk6GJQsqaUBKTNV-1">
          <mxGeometry x="570" y="360" width="90" height="30" as="geometry" />
        </mxCell>
        <mxCell id="O6eRiqCZWH2yZjMmsFh3-65" style="edgeStyle=orthogonalEdgeStyle;rounded=0;orthogonalLoop=1;jettySize=auto;html=1;entryX=0;entryY=0.5;entryDx=0;entryDy=0;" edge="1" parent="WIyWlLk6GJQsqaUBKTNV-1" source="O6eRiqCZWH2yZjMmsFh3-55" target="O6eRiqCZWH2yZjMmsFh3-64">
          <mxGeometry relative="1" as="geometry">
            <Array as="points">
              <mxPoint x="670" y="554" />
              <mxPoint x="670" y="494" />
            </Array>
          </mxGeometry>
        </mxCell>
        <mxCell id="O6eRiqCZWH2yZjMmsFh3-66" style="edgeStyle=orthogonalEdgeStyle;rounded=0;orthogonalLoop=1;jettySize=auto;html=1;entryX=0;entryY=0.5;entryDx=0;entryDy=0;" edge="1" parent="WIyWlLk6GJQsqaUBKTNV-1" source="O6eRiqCZWH2yZjMmsFh3-55" target="O6eRiqCZWH2yZjMmsFh3-62">
          <mxGeometry relative="1" as="geometry" />
        </mxCell>
        <mxCell id="O6eRiqCZWH2yZjMmsFh3-67" style="edgeStyle=orthogonalEdgeStyle;rounded=0;orthogonalLoop=1;jettySize=auto;html=1;entryX=0;entryY=0.5;entryDx=0;entryDy=0;" edge="1" parent="WIyWlLk6GJQsqaUBKTNV-1" source="O6eRiqCZWH2yZjMmsFh3-55" target="O6eRiqCZWH2yZjMmsFh3-63">
          <mxGeometry relative="1" as="geometry">
            <Array as="points">
              <mxPoint x="670" y="554" />
              <mxPoint x="670" y="609" />
            </Array>
          </mxGeometry>
        </mxCell>
        <mxCell id="O6eRiqCZWH2yZjMmsFh3-55" value="As inputs" style="rounded=1;whiteSpace=wrap;html=1;fillColor=#647687;fontColor=#ffffff;strokeColor=#314354;" vertex="1" parent="WIyWlLk6GJQsqaUBKTNV-1">
          <mxGeometry x="570" y="538.5" width="90" height="30" as="geometry" />
        </mxCell>
        <mxCell id="O6eRiqCZWH2yZjMmsFh3-56" value="Residual, adding to hidden states" style="ellipse;whiteSpace=wrap;html=1;" vertex="1" parent="WIyWlLk6GJQsqaUBKTNV-1">
          <mxGeometry x="690" y="413" width="122" height="47" as="geometry" />
        </mxCell>
        <mxCell id="O6eRiqCZWH2yZjMmsFh3-62" value="Concat to input embeddings" style="ellipse;whiteSpace=wrap;html=1;fillColor=#008a00;fontColor=#ffffff;strokeColor=#005700;" vertex="1" parent="WIyWlLk6GJQsqaUBKTNV-1">
          <mxGeometry x="690" y="530" width="122" height="47" as="geometry" />
        </mxCell>
        <mxCell id="O6eRiqCZWH2yZjMmsFh3-63" value="Add to input embeddings" style="ellipse;whiteSpace=wrap;html=1;" vertex="1" parent="WIyWlLk6GJQsqaUBKTNV-1">
          <mxGeometry x="690" y="585" width="122" height="47" as="geometry" />
        </mxCell>
        <mxCell id="O6eRiqCZWH2yZjMmsFh3-64" value="As initial input token" style="ellipse;whiteSpace=wrap;html=1;fillColor=#a20025;fontColor=#ffffff;strokeColor=#6F0000;" vertex="1" parent="WIyWlLk6GJQsqaUBKTNV-1">
          <mxGeometry x="690" y="470" width="122" height="47" as="geometry" />
        </mxCell>
        <mxCell id="O6eRiqCZWH2yZjMmsFh3-69" style="edgeStyle=orthogonalEdgeStyle;rounded=0;orthogonalLoop=1;jettySize=auto;html=1;exitX=0.5;exitY=1;exitDx=0;exitDy=0;" edge="1" parent="WIyWlLk6GJQsqaUBKTNV-1" source="O6eRiqCZWH2yZjMmsFh3-55" target="O6eRiqCZWH2yZjMmsFh3-55">
          <mxGeometry relative="1" as="geometry" />
        </mxCell>
        <mxCell id="O6eRiqCZWH2yZjMmsFh3-76" style="edgeStyle=orthogonalEdgeStyle;rounded=0;orthogonalLoop=1;jettySize=auto;html=1;entryX=0.5;entryY=0;entryDx=0;entryDy=0;" edge="1" parent="WIyWlLk6GJQsqaUBKTNV-1" target="O6eRiqCZWH2yZjMmsFh3-74">
          <mxGeometry relative="1" as="geometry">
            <mxPoint x="440" y="528" as="sourcePoint" />
            <Array as="points">
              <mxPoint x="440" y="540" />
              <mxPoint x="490" y="540" />
            </Array>
          </mxGeometry>
        </mxCell>
        <mxCell id="O6eRiqCZWH2yZjMmsFh3-77" style="edgeStyle=orthogonalEdgeStyle;rounded=0;orthogonalLoop=1;jettySize=auto;html=1;entryX=0.5;entryY=0;entryDx=0;entryDy=0;" edge="1" parent="WIyWlLk6GJQsqaUBKTNV-1" source="O6eRiqCZWH2yZjMmsFh3-71" target="O6eRiqCZWH2yZjMmsFh3-73">
          <mxGeometry relative="1" as="geometry">
            <Array as="points">
              <mxPoint x="440" y="540" />
              <mxPoint x="390" y="540" />
            </Array>
          </mxGeometry>
        </mxCell>
        <mxCell id="O6eRiqCZWH2yZjMmsFh3-71" value="learn image features?" style="rhombus;whiteSpace=wrap;html=1;fillColor=#f0a30a;fontColor=#000000;strokeColor=#BD7000;" vertex="1" parent="WIyWlLk6GJQsqaUBKTNV-1">
          <mxGeometry x="390" y="437.5" width="100" height="90" as="geometry" />
        </mxCell>
        <mxCell id="O6eRiqCZWH2yZjMmsFh3-73" value="FC" style="ellipse;whiteSpace=wrap;html=1;fillColor=#008a00;fontColor=#ffffff;strokeColor=#005700;" vertex="1" parent="WIyWlLk6GJQsqaUBKTNV-1">
          <mxGeometry x="360" y="560" width="60" height="41" as="geometry" />
        </mxCell>
        <mxCell id="O6eRiqCZWH2yZjMmsFh3-74" value="Transformer" style="ellipse;whiteSpace=wrap;html=1;fillColor=#fa6800;fontColor=#000000;strokeColor=#C73500;" vertex="1" parent="WIyWlLk6GJQsqaUBKTNV-1">
          <mxGeometry x="430" y="560" width="120" height="41" as="geometry" />
        </mxCell>
        <mxCell id="O6eRiqCZWH2yZjMmsFh3-78" value="On full input &quot;aka loss on padding also&quot;" style="ellipse;whiteSpace=wrap;html=1;fillColor=#a20025;fontColor=#ffffff;strokeColor=#6F0000;" vertex="1" parent="WIyWlLk6GJQsqaUBKTNV-1">
          <mxGeometry y="538.5" width="120" height="60" as="geometry" />
        </mxCell>
        <mxCell id="O6eRiqCZWH2yZjMmsFh3-79" value="Only on input sequence&amp;nbsp;" style="ellipse;whiteSpace=wrap;html=1;fillColor=#008a00;fontColor=#ffffff;strokeColor=#005700;" vertex="1" parent="WIyWlLk6GJQsqaUBKTNV-1">
          <mxGeometry x="130" y="538.5" width="100" height="60" as="geometry" />
        </mxCell>
        <mxCell id="O6eRiqCZWH2yZjMmsFh3-82" value="Useful for qualitative measure." style="ellipse;whiteSpace=wrap;html=1;fillColor=#fa6800;fontColor=#000000;strokeColor=#C73500;" vertex="1" parent="WIyWlLk6GJQsqaUBKTNV-1">
          <mxGeometry x="244" y="543" width="88" height="51" as="geometry" />
        </mxCell>
      </root>
    </mxGraphModel>
  </diagram>
</mxfile>
